<mxfile host="app.diagrams.net" agent="Mozilla/5.0 (Windows NT 10.0; Win64; x64) AppleWebKit/537.36 (KHTML, like Gecko) Chrome/139.0.0.0 Safari/537.36" version="26.1.3">
  <diagram id="2f404044-711c-603c-8f00-f6bb4c023d3c" name="Page-1">
    <mxGraphModel dx="2221" dy="529" grid="1" gridSize="10" guides="1" tooltips="1" connect="1" arrows="1" fold="1" page="1" pageScale="1" pageWidth="1169" pageHeight="827" background="none" math="0" shadow="0">
      <root>
        <mxCell id="0" />
        <mxCell id="1" parent="0" />
        <mxCell id="MXcj4GQOjRTAPMLaxnRe-65" value="" style="points=[];aspect=fixed;html=1;align=center;shadow=0;dashed=0;fillColor=#FF6A00;strokeColor=none;shape=mxgraph.alibaba_cloud.user;" vertex="1" parent="1">
          <mxGeometry x="-540" y="392.5" width="121" height="121" as="geometry" />
        </mxCell>
        <mxCell id="MXcj4GQOjRTAPMLaxnRe-64" value="" style="outlineConnect=0;dashed=0;verticalLabelPosition=bottom;verticalAlign=top;align=center;html=1;shape=mxgraph.aws3.filtering_rule;fillColor=#759C3E;gradientColor=none;" vertex="1" parent="1">
          <mxGeometry x="-280" y="405" width="105" height="95" as="geometry" />
        </mxCell>
        <mxCell id="MXcj4GQOjRTAPMLaxnRe-68" value="" style="image;aspect=fixed;html=1;points=[];align=center;fontSize=12;image=img/lib/azure2/general/Counter.svg;" vertex="1" parent="1">
          <mxGeometry x="-117" y="456.5" width="64" height="52" as="geometry" />
        </mxCell>
        <mxCell id="MXcj4GQOjRTAPMLaxnRe-67" value="" style="shape=image;html=1;verticalAlign=top;verticalLabelPosition=bottom;labelBackgroundColor=#ffffff;imageAspect=0;aspect=fixed;image=https://cdn4.iconfinder.com/data/icons/sports-outline-24-px/24/Achievement_badge_medal_ribbon_trophy-128.png" vertex="1" parent="1">
          <mxGeometry x="-130" y="160" width="90" height="90" as="geometry" />
        </mxCell>
        <mxCell id="MXcj4GQOjRTAPMLaxnRe-69" value="" style="verticalLabelPosition=bottom;shadow=0;dashed=0;align=center;html=1;verticalAlign=top;shape=mxgraph.electrical.abstract.summation_point;" vertex="1" parent="1">
          <mxGeometry x="-125" y="608" width="50" height="50" as="geometry" />
        </mxCell>
        <mxCell id="MXcj4GQOjRTAPMLaxnRe-71" value="" style="html=1;verticalLabelPosition=bottom;align=center;labelBackgroundColor=#ffffff;verticalAlign=top;strokeWidth=2;strokeColor=#0080F0;shadow=0;dashed=0;shape=mxgraph.ios7.icons.data;" vertex="1" parent="1">
          <mxGeometry x="290" y="370" width="70" height="86.1" as="geometry" />
        </mxCell>
        <mxCell id="MXcj4GQOjRTAPMLaxnRe-72" value="Badge Module" style="text;html=1;align=center;verticalAlign=middle;resizable=0;points=[];autosize=1;strokeColor=none;fillColor=none;" vertex="1" parent="1">
          <mxGeometry x="-140" y="260" width="100" height="30" as="geometry" />
        </mxCell>
        <mxCell id="MXcj4GQOjRTAPMLaxnRe-73" value="Streak Module" style="text;html=1;align=center;verticalAlign=middle;resizable=0;points=[];autosize=1;strokeColor=none;fillColor=none;" vertex="1" parent="1">
          <mxGeometry x="-140" y="426.5" width="100" height="30" as="geometry" />
        </mxCell>
        <mxCell id="MXcj4GQOjRTAPMLaxnRe-74" value="Well-being Module" style="text;html=1;align=center;verticalAlign=middle;resizable=0;points=[];autosize=1;strokeColor=none;fillColor=none;" vertex="1" parent="1">
          <mxGeometry x="-160" y="578" width="120" height="30" as="geometry" />
        </mxCell>
        <mxCell id="MXcj4GQOjRTAPMLaxnRe-75" value="Badge Earned" style="text;html=1;align=center;verticalAlign=middle;resizable=0;points=[];autosize=1;strokeColor=none;fillColor=none;" vertex="1" parent="1">
          <mxGeometry x="-20" y="178" width="100" height="30" as="geometry" />
        </mxCell>
        <mxCell id="MXcj4GQOjRTAPMLaxnRe-76" value="Badge Accepted" style="text;html=1;align=center;verticalAlign=middle;resizable=0;points=[];autosize=1;strokeColor=none;fillColor=none;" vertex="1" parent="1">
          <mxGeometry x="-35" y="228" width="110" height="30" as="geometry" />
        </mxCell>
        <mxCell id="MXcj4GQOjRTAPMLaxnRe-77" value="" style="image;sketch=0;aspect=fixed;html=1;points=[];align=center;fontSize=12;image=img/lib/mscae/Notification.svg;" vertex="1" parent="1">
          <mxGeometry x="-140" y="708" width="50" height="50" as="geometry" />
        </mxCell>
        <mxCell id="MXcj4GQOjRTAPMLaxnRe-78" value="Streak added" style="text;html=1;align=center;verticalAlign=middle;resizable=0;points=[];autosize=1;strokeColor=none;fillColor=none;" vertex="1" parent="1">
          <mxGeometry x="-25" y="438" width="90" height="30" as="geometry" />
        </mxCell>
        <mxCell id="MXcj4GQOjRTAPMLaxnRe-81" value="Reset to 0" style="text;html=1;align=center;verticalAlign=middle;resizable=0;points=[];autosize=1;strokeColor=none;fillColor=none;" vertex="1" parent="1">
          <mxGeometry x="-20" y="467.5" width="80" height="30" as="geometry" />
        </mxCell>
        <mxCell id="MXcj4GQOjRTAPMLaxnRe-82" value="Accept Badge" style="text;html=1;align=center;verticalAlign=middle;resizable=0;points=[];autosize=1;strokeColor=none;fillColor=none;" vertex="1" parent="1">
          <mxGeometry x="-40" y="578" width="100" height="30" as="geometry" />
        </mxCell>
        <mxCell id="MXcj4GQOjRTAPMLaxnRe-83" value="Accept Reward" style="text;html=1;align=center;verticalAlign=middle;resizable=0;points=[];autosize=1;strokeColor=none;fillColor=none;" vertex="1" parent="1">
          <mxGeometry x="-40" y="618" width="100" height="30" as="geometry" />
        </mxCell>
        <mxCell id="MXcj4GQOjRTAPMLaxnRe-85" value="Badge Earned" style="text;html=1;align=center;verticalAlign=middle;resizable=0;points=[];autosize=1;strokeColor=none;fillColor=none;" vertex="1" parent="1">
          <mxGeometry x="-60" y="688" width="100" height="30" as="geometry" />
        </mxCell>
        <mxCell id="MXcj4GQOjRTAPMLaxnRe-86" value="Streak Update" style="text;html=1;align=center;verticalAlign=middle;resizable=0;points=[];autosize=1;strokeColor=none;fillColor=none;" vertex="1" parent="1">
          <mxGeometry x="-60" y="718" width="100" height="30" as="geometry" />
        </mxCell>
        <mxCell id="MXcj4GQOjRTAPMLaxnRe-87" value="Points added" style="text;html=1;align=center;verticalAlign=middle;resizable=0;points=[];autosize=1;strokeColor=none;fillColor=none;" vertex="1" parent="1">
          <mxGeometry x="-65" y="748" width="90" height="30" as="geometry" />
        </mxCell>
        <mxCell id="MXcj4GQOjRTAPMLaxnRe-88" value="Add friend&amp;nbsp;" style="text;html=1;align=center;verticalAlign=middle;resizable=0;points=[];autosize=1;strokeColor=none;fillColor=none;" vertex="1" parent="1">
          <mxGeometry x="-390" y="414" width="80" height="30" as="geometry" />
        </mxCell>
        <mxCell id="MXcj4GQOjRTAPMLaxnRe-89" value="Book Session" style="text;html=1;align=center;verticalAlign=middle;resizable=0;points=[];autosize=1;strokeColor=none;fillColor=none;" vertex="1" parent="1">
          <mxGeometry x="-410" y="456.1" width="100" height="30" as="geometry" />
        </mxCell>
        <mxCell id="MXcj4GQOjRTAPMLaxnRe-90" value="Login&amp;nbsp;" style="text;html=1;align=center;verticalAlign=middle;resizable=0;points=[];autosize=1;strokeColor=none;fillColor=none;" vertex="1" parent="1">
          <mxGeometry x="-390" y="540" width="60" height="30" as="geometry" />
        </mxCell>
        <mxCell id="MXcj4GQOjRTAPMLaxnRe-92" value="Participate" style="text;html=1;align=center;verticalAlign=middle;resizable=0;points=[];autosize=1;strokeColor=none;fillColor=none;" vertex="1" parent="1">
          <mxGeometry x="-410" y="368" width="80" height="30" as="geometry" />
        </mxCell>
      </root>
    </mxGraphModel>
  </diagram>
</mxfile>
